<?xml version="1.0" encoding="UTF-8" standalone="no"?>
<!DOCTYPE svg PUBLIC "-//W3C//DTD SVG 1.1//EN"
 "http://www.w3.org/Graphics/SVG/1.1/DTD/svg11.dtd">
<!-- Generated by graphviz version 7.0.1 (20221109.1506)
 -->
<!-- Title: G Pages: 1 -->
<svg width="136pt" height="116pt"
 viewBox="0.00 0.00 136.33 116.00" xmlns="http://www.w3.org/2000/svg" xmlns:xlink="http://www.w3.org/1999/xlink">
<g id="graph0" class="graph" transform="scale(1 1) rotate(0) translate(4 112)">
<title>G</title><style>.edge>path:hover{stroke-width:8}</style>
<polygon fill="white" stroke="none" points="-4,4 -4,-112 132.33,-112 132.33,4 -4,4"/>
<!-- MyAdventureGames -->
<g id="node1" class="node">
<title>MyAdventureGames</title><style>.edge>path:hover{stroke-width:8}</style>
<ellipse fill="#ac4949" stroke="black" cx="63.67" cy="-18" rx="61.44" ry="18"/>
<text text-anchor="middle" x="63.67" y="-15.5" font-family="Helvetica,sans-Serif" font-size="10.00" fill="#ffffff">MyAdventureGames</text>
</g>
<!-- Places -->
<g id="node2" class="node">
<title>Places</title><style>.edge>path:hover{stroke-width:8}</style>
<ellipse fill="#53b653" stroke="black" cx="27.67" cy="-90" rx="27.84" ry="18"/>
<text text-anchor="middle" x="27.67" y="-87.5" font-family="Helvetica,sans-Serif" font-size="10.00" fill="#000000">Places</text>
</g>
<!-- Places&#45;&gt;MyAdventureGames -->
<g id="edge1" class="edge">
<title>Places&#45;&gt;MyAdventureGames</title><style>.edge>path:hover{stroke-width:8}</style>
<path fill="none" stroke="black" d="M36.2,-72.41C40.26,-64.51 45.23,-54.85 49.81,-45.94"/>
<polygon fill="#53b653" stroke="black" points="52.79,-47.8 54.25,-37.3 46.57,-44.59 52.79,-47.8"/>
</g>
<!-- Rooms -->
<g id="node3" class="node">
<title>Rooms</title><style>.edge>path:hover{stroke-width:8}</style>
<ellipse fill="#5353b6" stroke="black" cx="100.67" cy="-90" rx="27.84" ry="18"/>
<text text-anchor="middle" x="100.67" y="-87.5" font-family="Helvetica,sans-Serif" font-size="10.00" fill="#ffffff">Rooms</text>
</g>
<!-- Rooms&#45;&gt;MyAdventureGames -->
<g id="edge2" class="edge">
<title>Rooms&#45;&gt;MyAdventureGames</title><style>.edge>path:hover{stroke-width:8}</style>
<path fill="none" stroke="black" d="M91.9,-72.41C87.72,-64.51 82.62,-54.85 77.9,-45.94"/>
<polygon fill="#5353b6" stroke="black" points="81.1,-44.5 73.34,-37.29 74.92,-47.77 81.1,-44.5"/>
</g>
</g>
</svg>
