<?xml version="1.0" encoding="UTF-8" standalone="no"?>
<!DOCTYPE svg PUBLIC "-//W3C//DTD SVG 1.1//EN"
 "http://www.w3.org/Graphics/SVG/1.1/DTD/svg11.dtd">
<!-- Generated by graphviz version 7.0.1 (20221109.1506)
 -->
<!-- Title: G Pages: 1 -->
<svg width="360pt" height="194pt"
 viewBox="0.00 0.00 359.65 194.43" xmlns="http://www.w3.org/2000/svg" xmlns:xlink="http://www.w3.org/1999/xlink">
<g id="graph0" class="graph" transform="scale(1 1) rotate(0) translate(4 190.43)">
<title>G</title><style>.edge>path:hover{stroke-width:8}</style>
<polygon fill="white" stroke="none" points="-4,4 -4,-190.43 355.65,-190.43 355.65,4 -4,4"/>
<!-- Rooms -->
<g id="node1" class="node">
<title>Rooms</title><style>.edge>path:hover{stroke-width:8}</style>
<ellipse fill="#a44646" stroke="black" cx="174.62" cy="-18" rx="27.84" ry="18"/>
<text text-anchor="middle" x="174.62" y="-15.5" font-family="Helvetica,sans-Serif" font-size="10.00" fill="#ffffff">Rooms</text>
</g>
<!-- Rooms_hauntedroom -->
<g id="node2" class="node">
<title>Rooms_hauntedroom</title><style>.edge>path:hover{stroke-width:8}</style>
<ellipse fill="#b34c4c" stroke="black" cx="51.62" cy="-93.21" rx="51.74" ry="21.43"/>
<text text-anchor="middle" x="51.62" y="-96.21" font-family="Helvetica,sans-Serif" font-size="10.00" fill="#ffffff">Rooms.</text>
<text text-anchor="middle" x="51.62" y="-85.21" font-family="Helvetica,sans-Serif" font-size="10.00" fill="#ffffff">hauntedroom</text>
</g>
<!-- Rooms_hauntedroom&#45;&gt;Rooms -->
<g id="edge1" class="edge">
<title>Rooms_hauntedroom&#45;&gt;Rooms</title><style>.edge>path:hover{stroke-width:8}</style>
<path fill="none" stroke="black" d="M80.46,-75.05C99.93,-63.46 125.55,-48.21 145.15,-36.54"/>
<polygon fill="#b34c4c" stroke="black" points="146.68,-39.7 153.49,-31.58 143.1,-33.69 146.68,-39.7"/>
</g>
<!-- Rooms_mainentrance -->
<g id="node3" class="node">
<title>Rooms_mainentrance</title><style>.edge>path:hover{stroke-width:8}</style>
<ellipse fill="#b34c4c" stroke="black" cx="174.62" cy="-93.21" rx="53.07" ry="21.43"/>
<text text-anchor="middle" x="174.62" y="-96.21" font-family="Helvetica,sans-Serif" font-size="10.00" fill="#ffffff">Rooms.</text>
<text text-anchor="middle" x="174.62" y="-85.21" font-family="Helvetica,sans-Serif" font-size="10.00" fill="#ffffff">mainentrance</text>
</g>
<!-- Rooms_mainentrance&#45;&gt;Rooms -->
<g id="edge2" class="edge">
<title>Rooms_mainentrance&#45;&gt;Rooms</title><style>.edge>path:hover{stroke-width:8}</style>
<path fill="none" stroke="black" d="M174.62,-71.43C174.62,-64.02 174.62,-55.53 174.62,-47.58"/>
<polygon fill="#b34c4c" stroke="black" points="178.12,-47.64 174.62,-37.64 171.12,-47.64 178.12,-47.64"/>
</g>
<!-- Rooms_room -->
<g id="node4" class="node">
<title>Rooms_room</title><style>.edge>path:hover{stroke-width:8}</style>
<ellipse fill="#db2f2f" stroke="black" cx="174.62" cy="-168.43" rx="42.27" ry="18"/>
<text text-anchor="middle" x="174.62" y="-165.93" font-family="Helvetica,sans-Serif" font-size="10.00" fill="#ffffff">Rooms.room</text>
</g>
<!-- Rooms_room&#45;&gt;Rooms_hauntedroom -->
<g id="edge3" class="edge">
<title>Rooms_room&#45;&gt;Rooms_hauntedroom</title><style>.edge>path:hover{stroke-width:8}</style>
<path fill="none" stroke="black" d="M150.61,-153.14C133.39,-142.88 109.82,-128.85 90,-117.06"/>
<polygon fill="#db2f2f" stroke="black" points="92,-114.18 81.62,-112.07 88.42,-120.19 92,-114.18"/>
</g>
<!-- Rooms_room&#45;&gt;Rooms_mainentrance -->
<g id="edge4" class="edge">
<title>Rooms_room&#45;&gt;Rooms_mainentrance</title><style>.edge>path:hover{stroke-width:8}</style>
<path fill="none" stroke="black" d="M174.62,-150.08C174.62,-143.03 174.62,-134.65 174.62,-126.56"/>
<polygon fill="#db2f2f" stroke="black" points="178.12,-126.6 174.62,-116.6 171.12,-126.6 178.12,-126.6"/>
</g>
<!-- Rooms_skeletonroom -->
<g id="node5" class="node">
<title>Rooms_skeletonroom</title><style>.edge>path:hover{stroke-width:8}</style>
<ellipse fill="#b34c4c" stroke="black" cx="298.62" cy="-93.21" rx="53.07" ry="21.43"/>
<text text-anchor="middle" x="298.62" y="-96.21" font-family="Helvetica,sans-Serif" font-size="10.00" fill="#ffffff">Rooms.</text>
<text text-anchor="middle" x="298.62" y="-85.21" font-family="Helvetica,sans-Serif" font-size="10.00" fill="#ffffff">skeletonroom</text>
</g>
<!-- Rooms_room&#45;&gt;Rooms_skeletonroom -->
<g id="edge5" class="edge">
<title>Rooms_room&#45;&gt;Rooms_skeletonroom</title><style>.edge>path:hover{stroke-width:8}</style>
<path fill="none" stroke="black" d="M198.53,-153.31C215.87,-143.07 239.69,-129 259.75,-117.16"/>
<polygon fill="#db2f2f" stroke="black" points="261.41,-120.25 268.24,-112.15 257.85,-114.22 261.41,-120.25"/>
</g>
<!-- Rooms_skeletonroom&#45;&gt;Rooms -->
<g id="edge6" class="edge">
<title>Rooms_skeletonroom&#45;&gt;Rooms</title><style>.edge>path:hover{stroke-width:8}</style>
<path fill="none" stroke="black" d="M269.55,-75.05C249.92,-63.46 224.09,-48.21 204.33,-36.54"/>
<polygon fill="#b34c4c" stroke="black" points="206.31,-33.64 195.91,-31.57 202.75,-39.67 206.31,-33.64"/>
</g>
</g>
</svg>
